# xmcd
#
# Track frame offsets:
#	150
#	17226
#	32239
#	49674
#	66104
#	83550
#	96980
#	116174
#	139426
#	148481
#
# Disc length: 2224 seconds
# Revision: 1
# Processed by: cddbd v1.5.2PL0 Copyright (c) Steve Scherf et al.
# Submitted via: dBpowerAMP V12.0
#
DISCID=9608ae0a
DTITLE=Colin Gilmore - Goodnight Lane
DYEAR=2010
DGENRE=Country
TTITLE0=Circles in the Yard
TTITLE1=Goodnight Lane
TTITLE2=Hand Close to Mine
TTITLE3=Abigail
TTITLE4=Black Vines
TTITLE5=Laughing Hard or Crying
TTITLE6=Llano
TTITLE7=Essene Eyes
TTITLE8=Teeth, Hair and Eyeballs
TTITLE9=Raindrops in July
EXTD=
EXTT0=
EXTT1=
EXTT2=
EXTT3=
EXTT4=
EXTT5=
EXTT6=
EXTT7=
EXTT8=
EXTT9=
PLAYORDER=
